<svg viewBox="0 0 1200 675" xmlns="http://www.w3.org/2000/svg"><defs>
      <linearGradient id="bgGradagency-transfer-method" x1="0%" y1="0%" x2="100%" y2="100%">
        <stop offset="0%" stop-color="#14213D"/>
        <stop offset="55%" stop-color="#4A3F8C"/>
        <stop offset="100%" stop-color="#7C6CF2"/>
      </linearGradient>
      <linearGradient id="phoneScreenagency-transfer-method" x1="0%" y1="0%" x2="100%" y2="100%">
        <stop offset="0%" stop-color="#4A3F8C"/>
        <stop offset="100%" stop-color="#14213D"/>
      </linearGradient>
      <radialGradient id="glowagency-transfer-method" cx="50%" cy="30%" r="70%">
        <stop offset="0%" stop-color="#ffffff" stop-opacity="0.16"/>
        <stop offset="100%" stop-color="#ffffff" stop-opacity="0"/>
      </radialGradient>
    </defs><rect width="1200" height="675" fill="url(#bgGradagency-transfer-method)"/><rect width="1200" height="675" fill="url(#glowagency-transfer-method)"/><ellipse cx="168.00000000000003" cy="148.5" rx="200" ry="150" fill="#ffffff" opacity="0.06" transform="rotate(-6.2872 168.00000000000003 148.5)"/><ellipse cx="1104.0" cy="573.75" rx="260" ry="200" fill="#000000" opacity="0.1" transform="rotate(6.2872 1104.0 573.75)"/><ellipse cx="1020.0" cy="81.0" rx="150" ry="120" fill="#FF5A7A" opacity="0.16" transform="rotate(-12.5744 1020.0 81.0)"/><g opacity="0.1"><circle cx="52" cy="18" r="1.6" fill="#ffffff"/><circle cx="120" cy="18" r="1.6" fill="#ffffff"/><circle cx="188" cy="18" r="1.6" fill="#ffffff"/><circle cx="256" cy="18" r="1.6" fill="#ffffff"/><circle cx="324" cy="18" r="1.6" fill="#ffffff"/><circle cx="392" cy="18" r="1.6" fill="#ffffff"/><circle cx="460" cy="18" r="1.6" fill="#ffffff"/><circle cx="528" cy="18" r="1.6" fill="#ffffff"/><circle cx="596" cy="18" r="1.6" fill="#ffffff"/><circle cx="664" cy="18" r="1.6" fill="#ffffff"/><circle cx="732" cy="18" r="1.6" fill="#ffffff"/><circle cx="800" cy="18" r="1.6" fill="#ffffff"/><circle cx="868" cy="18" r="1.6" fill="#ffffff"/><circle cx="936" cy="18" r="1.6" fill="#ffffff"/><circle cx="1004" cy="18" r="1.6" fill="#ffffff"/><circle cx="1072" cy="18" r="1.6" fill="#ffffff"/><circle cx="1140" cy="18" r="1.6" fill="#ffffff"/><circle cx="18" cy="52" r="1.6" fill="#ffffff"/><circle cx="86" cy="52" r="1.6" fill="#ffffff"/><circle cx="154" cy="52" r="1.6" fill="#ffffff"/><circle cx="222" cy="52" r="1.6" fill="#ffffff"/><circle cx="290" cy="52" r="1.6" fill="#ffffff"/><circle cx="358" cy="52" r="1.6" fill="#ffffff"/><circle cx="426" cy="52" r="1.6" fill="#ffffff"/><circle cx="494" cy="52" r="1.6" fill="#ffffff"/><circle cx="562" cy="52" r="1.6" fill="#ffffff"/><circle cx="630" cy="52" r="1.6" fill="#ffffff"/><circle cx="698" cy="52" r="1.6" fill="#ffffff"/><circle cx="766" cy="52" r="1.6" fill="#ffffff"/><circle cx="834" cy="52" r="1.6" fill="#ffffff"/><circle cx="902" cy="52" r="1.6" fill="#ffffff"/><circle cx="970" cy="52" r="1.6" fill="#ffffff"/><circle cx="1038" cy="52" r="1.6" fill="#ffffff"/><circle cx="1106" cy="52" r="1.6" fill="#ffffff"/><circle cx="1174" cy="52" r="1.6" fill="#ffffff"/><circle cx="52" cy="86" r="1.6" fill="#ffffff"/><circle cx="120" cy="86" r="1.6" fill="#ffffff"/><circle cx="188" cy="86" r="1.6" fill="#ffffff"/><circle cx="256" cy="86" r="1.6" fill="#ffffff"/><circle cx="324" cy="86" r="1.6" fill="#ffffff"/><circle cx="392" cy="86" r="1.6" fill="#ffffff"/><circle cx="460" cy="86" r="1.6" fill="#ffffff"/><circle cx="528" cy="86" r="1.6" fill="#ffffff"/><circle cx="596" cy="86" r="1.6" fill="#ffffff"/><circle cx="664" cy="86" r="1.6" fill="#ffffff"/><circle cx="732" cy="86" r="1.6" fill="#ffffff"/><circle cx="800" cy="86" r="1.6" fill="#ffffff"/><circle cx="868" cy="86" r="1.6" fill="#ffffff"/><circle cx="936" cy="86" r="1.6" fill="#ffffff"/><circle cx="1004" cy="86" r="1.6" fill="#ffffff"/><circle cx="1072" cy="86" r="1.6" fill="#ffffff"/><circle cx="1140" cy="86" r="1.6" fill="#ffffff"/><circle cx="18" cy="120" r="1.6" fill="#ffffff"/><circle cx="86" cy="120" r="1.6" fill="#ffffff"/><circle cx="154" cy="120" r="1.6" fill="#ffffff"/><circle cx="222" cy="120" r="1.6" fill="#ffffff"/><circle cx="290" cy="120" r="1.6" fill="#ffffff"/><circle cx="358" cy="120" r="1.6" fill="#ffffff"/><circle cx="426" cy="120" r="1.6" fill="#ffffff"/><circle cx="494" cy="120" r="1.6" fill="#ffffff"/><circle cx="562" cy="120" r="1.6" fill="#ffffff"/><circle cx="630" cy="120" r="1.6" fill="#ffffff"/><circle cx="698" cy="120" r="1.6" fill="#ffffff"/><circle cx="766" cy="120" r="1.6" fill="#ffffff"/><circle cx="834" cy="120" r="1.6" fill="#ffffff"/><circle cx="902" cy="120" r="1.6" fill="#ffffff"/><circle cx="970" cy="120" r="1.6" fill="#ffffff"/><circle cx="1038" cy="120" r="1.6" fill="#ffffff"/><circle cx="1106" cy="120" r="1.6" fill="#ffffff"/><circle cx="1174" cy="120" r="1.6" fill="#ffffff"/><circle cx="52" cy="154" r="1.6" fill="#ffffff"/><circle cx="120" cy="154" r="1.6" fill="#ffffff"/><circle cx="188" cy="154" r="1.6" fill="#ffffff"/><circle cx="256" cy="154" r="1.6" fill="#ffffff"/><circle cx="324" cy="154" r="1.6" fill="#ffffff"/><circle cx="392" cy="154" r="1.6" fill="#ffffff"/><circle cx="460" cy="154" r="1.6" fill="#ffffff"/><circle cx="528" cy="154" r="1.6" fill="#ffffff"/><circle cx="596" cy="154" r="1.6" fill="#ffffff"/><circle cx="664" cy="154" r="1.6" fill="#ffffff"/><circle cx="732" cy="154" r="1.6" fill="#ffffff"/><circle cx="800" cy="154" r="1.6" fill="#ffffff"/><circle cx="868" cy="154" r="1.6" fill="#ffffff"/><circle cx="936" cy="154" r="1.6" fill="#ffffff"/><circle cx="1004" cy="154" r="1.6" fill="#ffffff"/><circle cx="1072" cy="154" r="1.6" fill="#ffffff"/><circle cx="1140" cy="154" r="1.6" fill="#ffffff"/><circle cx="18" cy="188" r="1.6" fill="#ffffff"/><circle cx="86" cy="188" r="1.6" fill="#ffffff"/><circle cx="154" cy="188" r="1.6" fill="#ffffff"/><circle cx="222" cy="188" r="1.6" fill="#ffffff"/><circle cx="290" cy="188" r="1.6" fill="#ffffff"/><circle cx="358" cy="188" r="1.6" fill="#ffffff"/><circle cx="426" cy="188" r="1.6" fill="#ffffff"/><circle cx="494" cy="188" r="1.6" fill="#ffffff"/><circle cx="562" cy="188" r="1.6" fill="#ffffff"/><circle cx="630" cy="188" r="1.6" fill="#ffffff"/><circle cx="698" cy="188" r="1.6" fill="#ffffff"/><circle cx="766" cy="188" r="1.6" fill="#ffffff"/><circle cx="834" cy="188" r="1.6" fill="#ffffff"/><circle cx="902" cy="188" r="1.6" fill="#ffffff"/><circle cx="970" cy="188" r="1.6" fill="#ffffff"/><circle cx="1038" cy="188" r="1.6" fill="#ffffff"/><circle cx="1106" cy="188" r="1.6" fill="#ffffff"/><circle cx="1174" cy="188" r="1.6" fill="#ffffff"/><circle cx="52" cy="222" r="1.6" fill="#ffffff"/><circle cx="120" cy="222" r="1.6" fill="#ffffff"/><circle cx="188" cy="222" r="1.6" fill="#ffffff"/><circle cx="256" cy="222" r="1.6" fill="#ffffff"/><circle cx="324" cy="222" r="1.6" fill="#ffffff"/><circle cx="392" cy="222" r="1.6" fill="#ffffff"/><circle cx="460" cy="222" r="1.6" fill="#ffffff"/><circle cx="528" cy="222" r="1.6" fill="#ffffff"/><circle cx="596" cy="222" r="1.6" fill="#ffffff"/><circle cx="664" cy="222" r="1.6" fill="#ffffff"/><circle cx="732" cy="222" r="1.6" fill="#ffffff"/><circle cx="800" cy="222" r="1.6" fill="#ffffff"/><circle cx="868" cy="222" r="1.6" fill="#ffffff"/><circle cx="936" cy="222" r="1.6" fill="#ffffff"/><circle cx="1004" cy="222" r="1.6" fill="#ffffff"/><circle cx="1072" cy="222" r="1.6" fill="#ffffff"/><circle cx="1140" cy="222" r="1.6" fill="#ffffff"/><circle cx="18" cy="256" r="1.6" fill="#ffffff"/><circle cx="86" cy="256" r="1.6" fill="#ffffff"/><circle cx="154" cy="256" r="1.6" fill="#ffffff"/><circle cx="222" cy="256" r="1.6" fill="#ffffff"/><circle cx="290" cy="256" r="1.6" fill="#ffffff"/><circle cx="358" cy="256" r="1.6" fill="#ffffff"/><circle cx="426" cy="256" r="1.6" fill="#ffffff"/><circle cx="494" cy="256" r="1.6" fill="#ffffff"/><circle cx="562" cy="256" r="1.6" fill="#ffffff"/><circle cx="630" cy="256" r="1.6" fill="#ffffff"/><circle cx="698" cy="256" r="1.6" fill="#ffffff"/><circle cx="766" cy="256" r="1.6" fill="#ffffff"/><circle cx="834" cy="256" r="1.6" fill="#ffffff"/><circle cx="902" cy="256" r="1.6" fill="#ffffff"/><circle cx="970" cy="256" r="1.6" fill="#ffffff"/><circle cx="1038" cy="256" r="1.6" fill="#ffffff"/><circle cx="1106" cy="256" r="1.6" fill="#ffffff"/><circle cx="1174" cy="256" r="1.6" fill="#ffffff"/><circle cx="52" cy="290" r="1.6" fill="#ffffff"/><circle cx="120" cy="290" r="1.6" fill="#ffffff"/><circle cx="188" cy="290" r="1.6" fill="#ffffff"/><circle cx="256" cy="290" r="1.6" fill="#ffffff"/><circle cx="324" cy="290" r="1.6" fill="#ffffff"/><circle cx="392" cy="290" r="1.6" fill="#ffffff"/><circle cx="460" cy="290" r="1.6" fill="#ffffff"/><circle cx="528" cy="290" r="1.6" fill="#ffffff"/><circle cx="596" cy="290" r="1.6" fill="#ffffff"/><circle cx="664" cy="290" r="1.6" fill="#ffffff"/><circle cx="732" cy="290" r="1.6" fill="#ffffff"/><circle cx="800" cy="290" r="1.6" fill="#ffffff"/><circle cx="868" cy="290" r="1.6" fill="#ffffff"/><circle cx="936" cy="290" r="1.6" fill="#ffffff"/><circle cx="1004" cy="290" r="1.6" fill="#ffffff"/><circle cx="1072" cy="290" r="1.6" fill="#ffffff"/><circle cx="1140" cy="290" r="1.6" fill="#ffffff"/><circle cx="18" cy="324" r="1.6" fill="#ffffff"/><circle cx="86" cy="324" r="1.6" fill="#ffffff"/><circle cx="154" cy="324" r="1.6" fill="#ffffff"/><circle cx="222" cy="324" r="1.6" fill="#ffffff"/><circle cx="290" cy="324" r="1.6" fill="#ffffff"/><circle cx="358" cy="324" r="1.6" fill="#ffffff"/><circle cx="426" cy="324" r="1.6" fill="#ffffff"/><circle cx="494" cy="324" r="1.6" fill="#ffffff"/><circle cx="562" cy="324" r="1.6" fill="#ffffff"/><circle cx="630" cy="324" r="1.6" fill="#ffffff"/><circle cx="698" cy="324" r="1.6" fill="#ffffff"/><circle cx="766" cy="324" r="1.6" fill="#ffffff"/><circle cx="834" cy="324" r="1.6" fill="#ffffff"/><circle cx="902" cy="324" r="1.6" fill="#ffffff"/><circle cx="970" cy="324" r="1.6" fill="#ffffff"/><circle cx="1038" cy="324" r="1.6" fill="#ffffff"/><circle cx="1106" cy="324" r="1.6" fill="#ffffff"/><circle cx="1174" cy="324" r="1.6" fill="#ffffff"/><circle cx="52" cy="358" r="1.6" fill="#ffffff"/><circle cx="120" cy="358" r="1.6" fill="#ffffff"/><circle cx="188" cy="358" r="1.6" fill="#ffffff"/><circle cx="256" cy="358" r="1.6" fill="#ffffff"/><circle cx="324" cy="358" r="1.6" fill="#ffffff"/><circle cx="392" cy="358" r="1.6" fill="#ffffff"/><circle cx="460" cy="358" r="1.6" fill="#ffffff"/><circle cx="528" cy="358" r="1.6" fill="#ffffff"/><circle cx="596" cy="358" r="1.6" fill="#ffffff"/><circle cx="664" cy="358" r="1.6" fill="#ffffff"/><circle cx="732" cy="358" r="1.6" fill="#ffffff"/><circle cx="800" cy="358" r="1.6" fill="#ffffff"/><circle cx="868" cy="358" r="1.6" fill="#ffffff"/><circle cx="936" cy="358" r="1.6" fill="#ffffff"/><circle cx="1004" cy="358" r="1.6" fill="#ffffff"/><circle cx="1072" cy="358" r="1.6" fill="#ffffff"/><circle cx="1140" cy="358" r="1.6" fill="#ffffff"/><circle cx="18" cy="392" r="1.6" fill="#ffffff"/><circle cx="86" cy="392" r="1.6" fill="#ffffff"/><circle cx="154" cy="392" r="1.6" fill="#ffffff"/><circle cx="222" cy="392" r="1.6" fill="#ffffff"/><circle cx="290" cy="392" r="1.6" fill="#ffffff"/><circle cx="358" cy="392" r="1.6" fill="#ffffff"/><circle cx="426" cy="392" r="1.6" fill="#ffffff"/><circle cx="494" cy="392" r="1.6" fill="#ffffff"/><circle cx="562" cy="392" r="1.6" fill="#ffffff"/><circle cx="630" cy="392" r="1.6" fill="#ffffff"/><circle cx="698" cy="392" r="1.6" fill="#ffffff"/><circle cx="766" cy="392" r="1.6" fill="#ffffff"/><circle cx="834" cy="392" r="1.6" fill="#ffffff"/><circle cx="902" cy="392" r="1.6" fill="#ffffff"/><circle cx="970" cy="392" r="1.6" fill="#ffffff"/><circle cx="1038" cy="392" r="1.6" fill="#ffffff"/><circle cx="1106" cy="392" r="1.6" fill="#ffffff"/><circle cx="1174" cy="392" r="1.6" fill="#ffffff"/><circle cx="52" cy="426" r="1.6" fill="#ffffff"/><circle cx="120" cy="426" r="1.6" fill="#ffffff"/><circle cx="188" cy="426" r="1.6" fill="#ffffff"/><circle cx="256" cy="426" r="1.6" fill="#ffffff"/><circle cx="324" cy="426" r="1.6" fill="#ffffff"/><circle cx="392" cy="426" r="1.6" fill="#ffffff"/><circle cx="460" cy="426" r="1.6" fill="#ffffff"/><circle cx="528" cy="426" r="1.6" fill="#ffffff"/><circle cx="596" cy="426" r="1.6" fill="#ffffff"/><circle cx="664" cy="426" r="1.6" fill="#ffffff"/><circle cx="732" cy="426" r="1.6" fill="#ffffff"/><circle cx="800" cy="426" r="1.6" fill="#ffffff"/><circle cx="868" cy="426" r="1.6" fill="#ffffff"/><circle cx="936" cy="426" r="1.6" fill="#ffffff"/><circle cx="1004" cy="426" r="1.6" fill="#ffffff"/><circle cx="1072" cy="426" r="1.6" fill="#ffffff"/><circle cx="1140" cy="426" r="1.6" fill="#ffffff"/><circle cx="18" cy="460" r="1.6" fill="#ffffff"/><circle cx="86" cy="460" r="1.6" fill="#ffffff"/><circle cx="154" cy="460" r="1.6" fill="#ffffff"/><circle cx="222" cy="460" r="1.6" fill="#ffffff"/><circle cx="290" cy="460" r="1.6" fill="#ffffff"/><circle cx="358" cy="460" r="1.6" fill="#ffffff"/><circle cx="426" cy="460" r="1.6" fill="#ffffff"/><circle cx="494" cy="460" r="1.6" fill="#ffffff"/><circle cx="562" cy="460" r="1.6" fill="#ffffff"/><circle cx="630" cy="460" r="1.6" fill="#ffffff"/><circle cx="698" cy="460" r="1.6" fill="#ffffff"/><circle cx="766" cy="460" r="1.6" fill="#ffffff"/><circle cx="834" cy="460" r="1.6" fill="#ffffff"/><circle cx="902" cy="460" r="1.6" fill="#ffffff"/><circle cx="970" cy="460" r="1.6" fill="#ffffff"/><circle cx="1038" cy="460" r="1.6" fill="#ffffff"/><circle cx="1106" cy="460" r="1.6" fill="#ffffff"/><circle cx="1174" cy="460" r="1.6" fill="#ffffff"/><circle cx="52" cy="494" r="1.6" fill="#ffffff"/><circle cx="120" cy="494" r="1.6" fill="#ffffff"/><circle cx="188" cy="494" r="1.6" fill="#ffffff"/><circle cx="256" cy="494" r="1.6" fill="#ffffff"/><circle cx="324" cy="494" r="1.6" fill="#ffffff"/><circle cx="392" cy="494" r="1.6" fill="#ffffff"/><circle cx="460" cy="494" r="1.6" fill="#ffffff"/><circle cx="528" cy="494" r="1.6" fill="#ffffff"/><circle cx="596" cy="494" r="1.6" fill="#ffffff"/><circle cx="664" cy="494" r="1.6" fill="#ffffff"/><circle cx="732" cy="494" r="1.6" fill="#ffffff"/><circle cx="800" cy="494" r="1.6" fill="#ffffff"/><circle cx="868" cy="494" r="1.6" fill="#ffffff"/><circle cx="936" cy="494" r="1.6" fill="#ffffff"/><circle cx="1004" cy="494" r="1.6" fill="#ffffff"/><circle cx="1072" cy="494" r="1.6" fill="#ffffff"/><circle cx="1140" cy="494" r="1.6" fill="#ffffff"/><circle cx="18" cy="528" r="1.6" fill="#ffffff"/><circle cx="86" cy="528" r="1.6" fill="#ffffff"/><circle cx="154" cy="528" r="1.6" fill="#ffffff"/><circle cx="222" cy="528" r="1.6" fill="#ffffff"/><circle cx="290" cy="528" r="1.6" fill="#ffffff"/><circle cx="358" cy="528" r="1.6" fill="#ffffff"/><circle cx="426" cy="528" r="1.6" fill="#ffffff"/><circle cx="494" cy="528" r="1.6" fill="#ffffff"/><circle cx="562" cy="528" r="1.6" fill="#ffffff"/><circle cx="630" cy="528" r="1.6" fill="#ffffff"/><circle cx="698" cy="528" r="1.6" fill="#ffffff"/><circle cx="766" cy="528" r="1.6" fill="#ffffff"/><circle cx="834" cy="528" r="1.6" fill="#ffffff"/><circle cx="902" cy="528" r="1.6" fill="#ffffff"/><circle cx="970" cy="528" r="1.6" fill="#ffffff"/><circle cx="1038" cy="528" r="1.6" fill="#ffffff"/><circle cx="1106" cy="528" r="1.6" fill="#ffffff"/><circle cx="1174" cy="528" r="1.6" fill="#ffffff"/><circle cx="52" cy="562" r="1.6" fill="#ffffff"/><circle cx="120" cy="562" r="1.6" fill="#ffffff"/><circle cx="188" cy="562" r="1.6" fill="#ffffff"/><circle cx="256" cy="562" r="1.6" fill="#ffffff"/><circle cx="324" cy="562" r="1.6" fill="#ffffff"/><circle cx="392" cy="562" r="1.6" fill="#ffffff"/><circle cx="460" cy="562" r="1.6" fill="#ffffff"/><circle cx="528" cy="562" r="1.6" fill="#ffffff"/><circle cx="596" cy="562" r="1.6" fill="#ffffff"/><circle cx="664" cy="562" r="1.6" fill="#ffffff"/><circle cx="732" cy="562" r="1.6" fill="#ffffff"/><circle cx="800" cy="562" r="1.6" fill="#ffffff"/><circle cx="868" cy="562" r="1.6" fill="#ffffff"/><circle cx="936" cy="562" r="1.6" fill="#ffffff"/><circle cx="1004" cy="562" r="1.6" fill="#ffffff"/><circle cx="1072" cy="562" r="1.6" fill="#ffffff"/><circle cx="1140" cy="562" r="1.6" fill="#ffffff"/><circle cx="18" cy="596" r="1.6" fill="#ffffff"/><circle cx="86" cy="596" r="1.6" fill="#ffffff"/><circle cx="154" cy="596" r="1.6" fill="#ffffff"/><circle cx="222" cy="596" r="1.6" fill="#ffffff"/><circle cx="290" cy="596" r="1.6" fill="#ffffff"/><circle cx="358" cy="596" r="1.6" fill="#ffffff"/><circle cx="426" cy="596" r="1.6" fill="#ffffff"/><circle cx="494" cy="596" r="1.6" fill="#ffffff"/><circle cx="562" cy="596" r="1.6" fill="#ffffff"/><circle cx="630" cy="596" r="1.6" fill="#ffffff"/><circle cx="698" cy="596" r="1.6" fill="#ffffff"/><circle cx="766" cy="596" r="1.6" fill="#ffffff"/><circle cx="834" cy="596" r="1.6" fill="#ffffff"/><circle cx="902" cy="596" r="1.6" fill="#ffffff"/><circle cx="970" cy="596" r="1.6" fill="#ffffff"/><circle cx="1038" cy="596" r="1.6" fill="#ffffff"/><circle cx="1106" cy="596" r="1.6" fill="#ffffff"/><circle cx="1174" cy="596" r="1.6" fill="#ffffff"/><circle cx="52" cy="630" r="1.6" fill="#ffffff"/><circle cx="120" cy="630" r="1.6" fill="#ffffff"/><circle cx="188" cy="630" r="1.6" fill="#ffffff"/><circle cx="256" cy="630" r="1.6" fill="#ffffff"/><circle cx="324" cy="630" r="1.6" fill="#ffffff"/><circle cx="392" cy="630" r="1.6" fill="#ffffff"/><circle cx="460" cy="630" r="1.6" fill="#ffffff"/><circle cx="528" cy="630" r="1.6" fill="#ffffff"/><circle cx="596" cy="630" r="1.6" fill="#ffffff"/><circle cx="664" cy="630" r="1.6" fill="#ffffff"/><circle cx="732" cy="630" r="1.6" fill="#ffffff"/><circle cx="800" cy="630" r="1.6" fill="#ffffff"/><circle cx="868" cy="630" r="1.6" fill="#ffffff"/><circle cx="936" cy="630" r="1.6" fill="#ffffff"/><circle cx="1004" cy="630" r="1.6" fill="#ffffff"/><circle cx="1072" cy="630" r="1.6" fill="#ffffff"/><circle cx="1140" cy="630" r="1.6" fill="#ffffff"/></g><g transform="translate(571.1376,65.80395000000001)" opacity="0.48404499999999995">
      <path d="M0 -17.67896 C 2.651844 -2.651844, 2.651844 -2.651844, 17.67896 0 C 2.651844 2.651844, 2.651844 2.651844, 0 17.67896 C -2.651844 2.651844, -2.651844 2.651844, -17.67896 0 C -2.651844 -2.651844, -2.651844 -2.651844, 0 -17.67896 Z" fill="#FF5A7A"/>
    </g><g transform="translate(756.7776,225.56696250000002) rotate(0) scale(0.44831333333333334)" opacity="0.526288">
      <path d="M12 21s-7.5-4.6-10.2-9.1C.3 9.1 1.3 5.2 5 4.2c2.2-.6 4.2.4 5.8 2.4l1.2 1.5 1.2-1.5c1.6-2 3.6-3 5.8-2.4 3.7 1 4.7 4.9 3.2 7.7C19.5 16.4 12 21 12 21z" fill="#ffffff"/>
    </g><g transform="translate(196.0384,228.8566125)" opacity="0.5062099999999999">
      <path d="M0 -8.49908 C 1.274862 -1.274862, 1.274862 -1.274862, 8.49908 0 C 1.274862 1.274862, 1.274862 1.274862, 0 8.49908 C -1.274862 1.274862, -1.274862 1.274862, -8.49908 0 C -1.274862 -1.274862, -1.274862 -1.274862, 0 -8.49908 Z" fill="#ffffff"/>
    </g><g transform="translate(239.4048,332.85596250000003) rotate(0) scale(0.6434883333333333)" opacity="0.67064">
      <path d="M12 21s-7.5-4.6-10.2-9.1C.3 9.1 1.3 5.2 5 4.2c2.2-.6 4.2.4 5.8 2.4l1.2 1.5 1.2-1.5c1.6-2 3.6-3 5.8-2.4 3.7 1 4.7 4.9 3.2 7.7C19.5 16.4 12 21 12 21z" fill="#40C9C6"/>
    </g><g transform="translate(354.8208,164.38766250000003)" opacity="0.658285">
      <path d="M0 -15.58832 C 2.3382479999999997 -2.3382479999999997, 2.3382479999999997 -2.3382479999999997, 15.58832 0 C 2.3382479999999997 2.3382479999999997, 2.3382479999999997 2.3382479999999997, 0 15.58832 C -2.3382479999999997 2.3382479999999997, -2.3382479999999997 2.3382479999999997, -15.58832 0 C -2.3382479999999997 -2.3382479999999997, -2.3382479999999997 -2.3382479999999997, 0 -15.58832 Z" fill="#40C9C6"/>
    </g><g transform="translate(96.0,94.50000000000001)">
      <rect x="0" y="0" width="190" height="240" rx="34" fill="#0D1226" opacity="0.92"/>
      <rect x="8" y="8" width="174" height="224" rx="28" fill="url(#phoneScreenagency-transfer-method)"/>
      <rect x="8" y="8" width="174" height="224" rx="28" fill="#fff" opacity="0.04"/>
      <g transform="translate(24,26) scale(0.85)">
      <rect x="0" y="0" width="74" height="30" rx="15" fill="#FF5A7A"/>
      <circle cx="16" cy="15" r="5" fill="#fff"><animate attributeName="opacity" values="1;.35;1" dur="1.6s" repeatCount="indefinite"/></circle>
      <text x="30" y="20" font-family="Manrope,Arial,sans-serif" font-weight="800" font-size="14" fill="#fff">LIVE</text>
    </g>
      <circle cx="148" cy="34" r="14" fill="#fff" opacity="0.25"/>
      <path d="M142 34 l5 4 l8 -9" stroke="#fff" stroke-width="2.4" fill="none" stroke-linecap="round" stroke-linejoin="round" opacity="0.9"/>
      <g transform="translate(160,200) rotate(0) scale(0.8333333333333334)" opacity="0.95">
      <path d="M12 21s-7.5-4.6-10.2-9.1C.3 9.1 1.3 5.2 5 4.2c2.2-.6 4.2.4 5.8 2.4l1.2 1.5 1.2-1.5c1.6-2 3.6-3 5.8-2.4 3.7 1 4.7 4.9 3.2 7.7C19.5 16.4 12 21 12 21z" fill="#FF5A7A"/>
    </g>
      <g transform="translate(130,170) rotate(0) scale(0.5833333333333334)" opacity="0.7">
      <path d="M12 21s-7.5-4.6-10.2-9.1C.3 9.1 1.3 5.2 5 4.2c2.2-.6 4.2.4 5.8 2.4l1.2 1.5 1.2-1.5c1.6-2 3.6-3 5.8-2.4 3.7 1 4.7 4.9 3.2 7.7C19.5 16.4 12 21 12 21z" fill="#fff"/>
    </g>
      <rect x="20" y="194" width="104.50000000000001" height="14" rx="7" fill="#fff" opacity="0.22"/>
    </g><g transform="translate(360.0,67.5) rotate(-0.6208)">
      <rect x="0" y="0" width="96" height="34" rx="17.0" fill="#ffffff"/>
      <path d="M21.12 34 L11.52 44 L32.64 34 Z" fill="#ffffff"/>
      <text x="48.0" y="22.0" text-anchor="middle" font-family="Manrope,Arial,sans-serif" font-weight="700" font-size="14.28" fill="#ffffff">♪</text>
    </g><g transform="translate(480.0,202.5) rotate(-3.57616)">
      <rect x="0" y="0" width="70" height="28" rx="14.0" fill="#40C9C6"/>
      <path d="M15.4 28 L8.4 38 L23.8 28 Z" fill="#40C9C6"/>
      <text x="35.0" y="19.0" text-anchor="middle" font-family="Manrope,Arial,sans-serif" font-weight="700" font-size="11.76" fill="#ffffff">♡</text>
    </g><g transform="translate(848.67552,378.12538489208634) scale(1.5199154676258992)"><ellipse cx="0" cy="168" rx="86" ry="14" fill="#14213D" opacity="0.12"/><path d="M-58 150 C-64 90 -50 40 0 40 C50 40 64 90 58 150 Z" fill="#7C6CF2"/><path d="M-58 150 C-64 90 -50 40 0 40 C50 40 64 90 58 150 Z" fill="#000" opacity="0.06"/><path d="M-20 42 Q0 62 20 42" stroke="#fff" stroke-width="4" fill="none" opacity="0.55"/><path d="M-56 95 Q-86 70 -62 32" stroke="#7C6CF2" stroke-width="22" fill="none" stroke-linecap="round"/><circle cx="-64" cy="24" r="15" fill="#E8EAF2"/><rect x="-70" y="24" width="12" height="30" rx="6" fill="#C7CBDA"/><path d="M54 95 Q86 92 78 58" stroke="#7C6CF2" stroke-width="22" fill="none" stroke-linecap="round"/><rect x="-14" y="26" width="28" height="20" fill="#FFDDBB"/><circle cx="0" cy="-10" r="62" fill="#FFDDBB"/><ellipse cx="-34" cy="8" rx="11" ry="7" fill="#FF9EB0" opacity="0.65"/><ellipse cx="34" cy="8" rx="11" ry="7" fill="#FF9EB0" opacity="0.65"/><circle cx="-22" cy="-12" r="6.4" fill="#241B2F"/><circle cx="22" cy="-12" r="6.4" fill="#241B2F"/><circle cx="-24.4" cy="-14.4" r="2.1" fill="#fff"/><circle cx="19.6" cy="-14.4" r="2.1" fill="#fff"/><path d="M-10 14 Q0 22 10 14" stroke="#241B2F" stroke-width="3.4" fill="none" stroke-linecap="round"/><path d="M-62 -18 C-66 -70 -34 -96 0 -96 C34 -96 66 -70 62 -18 C58 -46 44 -60 30 -46 C22 -62 -22 -62 -30 -46 C-44 -60 -58 -46 -62 -18 Z" fill="#241B2F"/><circle cx="-58" cy="-12" r="9" fill="#FF5A7A" opacity="0.9"/><circle cx="58" cy="-12" r="9" fill="#FF5A7A" opacity="0.9"/></g><text x="1172" y="649" text-anchor="end" font-family="Manrope,Arial,sans-serif" font-weight="800" font-size="15" letter-spacing="2" fill="#ffffff" opacity="0.55">AGENCY GUIDE</text><text x="28" y="649" font-family="Manrope,Arial,sans-serif" font-weight="800" font-size="15" letter-spacing="1" fill="#ffffff" opacity="0.5">LIVER COMPASS</text></svg>