<svg viewBox="0 0 200 200" xmlns="http://www.w3.org/2000/svg"><defs>
      <linearGradient id="bgGradstory1" x1="0%" y1="0%" x2="100%" y2="100%">
        <stop offset="0%" stop-color="#B23A5C"/>
        <stop offset="55%" stop-color="#FF5A7A"/>
        <stop offset="100%" stop-color="#F4A340"/>
      </linearGradient>
      <linearGradient id="phoneScreenstory1" x1="0%" y1="0%" x2="100%" y2="100%">
        <stop offset="0%" stop-color="#FF5A7A"/>
        <stop offset="100%" stop-color="#B23A5C"/>
      </linearGradient>
      <radialGradient id="glowstory1" cx="50%" cy="30%" r="70%">
        <stop offset="0%" stop-color="#ffffff" stop-opacity="0.16"/>
        <stop offset="100%" stop-color="#ffffff" stop-opacity="0"/>
      </radialGradient>
    </defs><circle cx="100.0" cy="100.0" r="100.0" fill="url(#bgGradstory1)"/><g transform="translate(100.0,129.58273381294964) scale(0.4748201438848921)"><ellipse cx="0" cy="168" rx="86" ry="14" fill="#14213D" opacity="0.12"/><path d="M-58 150 C-64 90 -50 40 0 40 C50 40 64 90 58 150 Z" fill="#7C6CF2"/><path d="M-58 150 C-64 90 -50 40 0 40 C50 40 64 90 58 150 Z" fill="#000" opacity="0.06"/><path d="M-20 42 Q0 62 20 42" stroke="#fff" stroke-width="4" fill="none" opacity="0.55"/><path d="M-56 95 Q-40 60 -12 58" stroke="#7C6CF2" stroke-width="22" fill="none" stroke-linecap="round"/><path d="M54 95 Q40 60 12 58" stroke="#7C6CF2" stroke-width="22" fill="none" stroke-linecap="round"/><g transform="translate(0,50) rotate(0) scale(1.25)" opacity="0.9">
      <path d="M12 21s-7.5-4.6-10.2-9.1C.3 9.1 1.3 5.2 5 4.2c2.2-.6 4.2.4 5.8 2.4l1.2 1.5 1.2-1.5c1.6-2 3.6-3 5.8-2.4 3.7 1 4.7 4.9 3.2 7.7C19.5 16.4 12 21 12 21z" fill="#7C6CF2"/>
    </g><rect x="-14" y="26" width="28" height="20" fill="#FFDDBB"/><circle cx="0" cy="-10" r="62" fill="#FFDDBB"/><ellipse cx="-34" cy="8" rx="11" ry="7" fill="#FF9EB0" opacity="0.65"/><ellipse cx="34" cy="8" rx="11" ry="7" fill="#FF9EB0" opacity="0.65"/><circle cx="-22" cy="-12" r="6.4" fill="#241B2F"/><circle cx="22" cy="-12" r="6.4" fill="#241B2F"/><circle cx="-24.4" cy="-14.4" r="2.1" fill="#fff"/><circle cx="19.6" cy="-14.4" r="2.1" fill="#fff"/><path d="M-10 14 Q0 22 10 14" stroke="#241B2F" stroke-width="3.4" fill="none" stroke-linecap="round"/><path d="M-62 -18 C-66 -70 -34 -96 0 -96 C34 -96 66 -70 62 -18 C58 -46 44 -60 30 -46 C22 -62 -22 -62 -30 -46 C-44 -60 -58 -46 -62 -18 Z" fill="#2E2540"/><circle cx="-58" cy="-12" r="9" fill="#7C6CF2" opacity="0.9"/><circle cx="58" cy="-12" r="9" fill="#7C6CF2" opacity="0.9"/></g></svg>